<?xml version="1.0" encoding="UTF-8"?>
<svg version="1.1" xmlns="http://www.w3.org/2000/svg" width="200" height="200">
<path d="M0 0 C66 0 132 0 200 0 C200 66 200 132 200 200 C134 200 68 200 0 200 C0 134 0 68 0 0 Z " fill="#FEFEFE" transform="translate(0,0)"/>
<path d="M0 0 C2.5 1.5 2.5 1.5 4 4 C4.47496008 8.2746407 4.37451228 10.89987017 3 14.9375 C0.44977242 17.56742219 -1.38501211 18.03703024 -4.9921875 18.25 C-7 18 -7 18 -10 16.125 C-12.65415791 11.97787827 -12.94007389 8.79885336 -12 4 C-9.21426557 -0.75896299 -5.06202203 -0.99580761 0 0 Z " fill="#161616" transform="translate(85,90)"/>
<path d="M0 0 C1.65 0 3.3 0 5 0 C6.80078125 2.1875 6.80078125 2.1875 8.3125 5 C8.82425781 5.928125 9.33601563 6.85625 9.86328125 7.8125 C10.23839844 8.534375 10.61351563 9.25625 11 10 C11.33 6.7 11.66 3.4 12 0 C12.99 0 13.98 0 15 0 C15 5.61 15 11.22 15 17 C10 16 10 16 8.41796875 14.15234375 C7.27864583 12.1015625 6.13932292 10.05078125 5 8 C4.67 11.3 4.34 14.6 4 18 C2.68 18 1.36 18 0 18 C0 12.06 0 6.12 0 0 Z " fill="#202020" transform="translate(100,90)"/>
<path d="M0 0 C0.66 1.32 1.32 2.64 2 4 C-0.22926402 4 -2.45883857 3.98932934 -4.6875 3.9375 C-6.96298597 3.73373775 -6.96298597 3.73373775 -8 5 C-8.07179964 6.51928038 -8.08392007 8.04167482 -8.0625 9.5625 C-8.05347656 10.38878906 -8.04445313 11.21507813 -8.03515625 12.06640625 C-8.02355469 12.70449219 -8.01195313 13.34257813 -8 14 C-6.02 14 -4.04 14 -2 14 C-1.67 13.01 -1.34 12.02 -1 11 C-2.32 11 -3.64 11 -5 11 C-5 10.01 -5 9.02 -5 8 C-2.36 8 0.28 8 3 8 C3 11.3 3 14.6 3 18 C2.195625 17.814375 1.39125 17.62875 0.5625 17.4375 C-0.283125 17.293125 -1.12875 17.14875 -2 17 C-2.33 17.33 -2.66 17.66 -3 18 C-6.4375 17.75 -6.4375 17.75 -10 17 C-12.83196846 12.75204731 -12.63634579 8.98470866 -12 4 C-9.10280922 -1.07008386 -5.28138839 -0.35209256 0 0 Z " fill="#212121" transform="translate(131,90)"/>
<path d="M0 0 C0.66 1.32 1.32 2.64 2 4 C-0.22926402 4 -2.45883857 3.98932934 -4.6875 3.9375 C-6.96298597 3.73373775 -6.96298597 3.73373775 -8 5 C-8.07179964 6.51928038 -8.08392007 8.04167482 -8.0625 9.5625 C-8.05347656 10.38878906 -8.04445312 11.21507813 -8.03515625 12.06640625 C-8.02355469 12.70449219 -8.01195312 13.34257813 -8 14 C-6.02 14 -4.04 14 -2 14 C-1.67 13.01 -1.34 12.02 -1 11 C-2.32 11 -3.64 11 -5 11 C-5 10.01 -5 9.02 -5 8 C-2.36 8 0.28 8 3 8 C3 11.3 3 14.6 3 18 C2.195625 17.814375 1.39125 17.62875 0.5625 17.4375 C-0.283125 17.293125 -1.12875 17.14875 -2 17 C-2.33 17.33 -2.66 17.66 -3 18 C-6.4375 17.75 -6.4375 17.75 -10 17 C-12.83196846 12.75204731 -12.63634579 8.98470866 -12 4 C-9.10280922 -1.07008386 -5.28138839 -0.35209256 0 0 Z " fill="#202020" transform="translate(149,90)"/>
<path d="M0 0 C4.62 0 9.24 0 14 0 C14 0.99 14 1.98 14 3 C12.35 3 10.7 3 9 3 C9 7.95 9 12.9 9 18 C7.68 18 6.36 18 5 18 C5 13.05 5 8.1 5 3 C3.35 3 1.7 3 0 3 C0 2.01 0 1.02 0 0 Z " fill="#222222" transform="translate(57,90)"/>
<path d="M0 0 C1.4540625 0.0309375 1.4540625 0.0309375 2.9375 0.0625 C4.05195498 2.29140995 4.10230286 3.59305106 4.125 6.0625 C4.13917969 6.76375 4.15335938 7.465 4.16796875 8.1875 C3.9375 10.0625 3.9375 10.0625 1.9375 12.0625 C-0.5625 11.875 -0.5625 11.875 -3.0625 11.0625 C-5.0625 8.0625 -5.0625 8.0625 -4.75 4.4375 C-3.86212049 0.07881879 -3.86212049 0.07881879 0 0 Z " fill="#EDEDED" transform="translate(81.0625,92.9375)"/>
<path d="M0 0 C1.32 0 2.64 0 4 0 C4 5.94 4 11.88 4 18 C2.68 18 1.36 18 0 18 C0 12.06 0 6.12 0 0 Z " fill="#292929" transform="translate(92,90)"/>
<path d="M0 0 C1.32 0 2.64 0 4 0 C5.125 3.75 5.125 3.75 4 6 C3.34 6 2.68 6 2 6 C2 9.63 2 13.26 2 17 C1.34 17 0.68 17 0 17 C0 11.39 0 5.78 0 0 Z " fill="#040404" transform="translate(101,90)"/>
<path d="M0 0 C2.31 0 4.62 0 7 0 C7 2.97 7 5.94 7 9 C6.34 9 5.68 9 5 9 C5 8.34 5 7.68 5 7 C4.34 6.67 3.68 6.34 3 6 C3.33 5.01 3.66 4.02 4 3 C2.68 3 1.36 3 0 3 C0 2.01 0 1.02 0 0 Z " fill="#0D0D0D" transform="translate(126,98)"/>
<path d="M0 0 C2.31 0 4.62 0 7 0 C7 2.97 7 5.94 7 9 C6.34 9 5.68 9 5 9 C4.67 7.02 4.34 5.04 4 3 C2.68 3 1.36 3 0 3 C0 2.01 0 1.02 0 0 Z " fill="#0D0D0D" transform="translate(144,98)"/>
<path d="M0 0 C0.33 0.99 0.66 1.98 1 3 C2.32 3 3.64 3 5 3 C4.67 4.32 4.34 5.64 4 7 C1.03 6.505 1.03 6.505 -2 6 C-1.49396008 3.83125748 -1.00016187 2.00032373 0 0 Z " fill="#E4E4E4" transform="translate(125,98)"/>
</svg>
